Coordinates
version=1
nRows=65
nColumns=12
inDegrees=yes

Units are S.I. units (second, meters, Newtons, ...)
Angles are in degrees

endheader
time	SC_y	SC_z	SC_x	AC_y	AC_z	AC_x	GH_y	GH_z	GH_yy	EL_x	PS_y
       0.0              -25.35          22.38          70.87          41.39         -15.09          10.97          138.6         -1.912          18.54          135.9          87.47
   0.01645              -25.36          22.38          70.87          41.39         -15.08          10.97          138.6         -1.908          18.54          135.9          87.47
    0.0329              -25.36          22.38          70.86          41.39         -15.08          10.97          138.6         -1.903          18.55          135.8          87.47
   0.04935              -25.36          22.38          70.85          41.39         -15.08          10.97          138.6         -1.898          18.55          135.8          87.46
    0.0658              -25.37          22.39          70.84          41.39         -15.08          10.97          138.5         -1.892          18.56          135.8          87.46
   0.08225              -25.37          22.39          70.83          41.38         -15.08          10.97          138.5         -1.887          18.56          135.8          87.46
    0.0987              -25.38          22.39          70.82          41.38         -15.07          10.97          138.5         -1.881          18.57          135.8          87.45
    0.1152              -25.38           22.4           70.8          41.38         -15.07          10.96          138.5         -1.874          18.57          135.8          87.45
    0.1316              -25.39           22.4          70.79          41.38         -15.07          10.96          138.4         -1.867          18.58          135.8          87.44
    0.1481              -25.39           22.4          70.78          41.38         -15.07          10.96          138.4         -1.859          18.59          135.8          87.44
    0.1645               -25.4          22.41          70.76          41.37         -15.06          10.96          138.4         -1.851          18.59          135.8          87.44
     0.181               -25.4          22.41          70.75          41.37         -15.06          10.96          138.4         -1.842           18.6          135.8          87.43
    0.1974              -25.41          22.42          70.73          41.37         -15.06          10.95          138.3         -1.833          18.61          135.8          87.43
    0.2139              -25.42          22.42          70.71          41.37         -15.05          10.95          138.3         -1.823          18.62          135.8          87.42
    0.2303              -25.43          22.43          70.69          41.36         -15.05          10.95          138.2         -1.812          18.63          135.8          87.41
    0.2468              -25.44          22.43          70.67          41.36         -15.05          10.95          138.2           -1.8          18.64          135.7          87.41
    0.2632              -25.45          22.44          70.65          41.36         -15.04          10.94          138.1         -1.787          18.65          135.7           87.4
    0.2797              -25.46          22.45          70.62          41.35         -15.04          10.94          138.1         -1.773          18.66          135.7          87.39
    0.2961              -25.47          22.45          70.59          41.35         -15.03          10.93          138.0         -1.757          18.67          135.7          87.38
    0.3126              -25.48          22.46          70.56          41.34         -15.02          10.93          138.0         -1.741          18.69          135.7          87.37
     0.329               -25.5          22.47          70.53          41.34         -15.02          10.93          137.9         -1.722          18.71          135.7          87.36
    0.3455              -25.51          22.48          70.49          41.33         -15.01          10.92          137.8         -1.702          18.72          135.6          87.35
    0.3619              -25.53          22.49          70.45          41.33          -15.0          10.91          137.7         -1.679          18.74          135.6          87.34
    0.3784              -25.55           22.5           70.4          41.32         -14.99          10.91          137.7         -1.654          18.76          135.6          87.32
    0.3948              -25.57          22.52          70.35          41.31         -14.98           10.9          137.5         -1.626          18.79          135.6          87.31
    0.4113              -25.59          22.53           70.3           41.3         -14.97          10.89          137.4         -1.595          18.82          135.5          87.29
    0.4277              -25.62          22.55          70.23          41.29         -14.96          10.88          137.3         -1.561          18.85          135.5          87.27
    0.4442              -25.65          22.57          70.16          41.28         -14.95          10.87          137.2         -1.521          18.88          135.5          87.25
    0.4606              -25.68          22.59          70.08          41.27         -14.93          10.86          137.0         -1.477          18.92          135.4          87.22
    0.4771              -25.72          22.61          69.99          41.26         -14.91          10.85          136.8         -1.427          18.96          135.4           87.2
    0.4935              -25.76          22.64          69.89          41.24         -14.89          10.84          136.6          -1.37          19.01          135.3          87.16
      0.51              -25.81          22.67          69.77          41.22         -14.87          10.82          136.3         -1.304          19.07          135.2          87.13
    0.5264              -25.87          22.71          69.63           41.2         -14.84           10.8          136.1         -1.229          19.14          135.1          87.08
    0.5429              -25.94          22.75          69.47          41.17         -14.81          10.78          135.7          -1.14          19.21          135.1          87.03
    0.5593              -26.01           22.8          69.28          41.15         -14.77          10.75          135.3         -1.037           19.3          135.0          86.98
    0.5758              -26.11          22.86          69.06          41.11         -14.73          10.72          134.9         -0.916          19.41          134.8          86.91
    0.5922              -26.21          22.93           68.8          41.07         -14.68          10.68          134.4        -0.7716          19.53          134.7          86.83
    0.6087              -26.35          23.02          68.48          41.02         -14.62          10.64          133.7        -0.5986          19.68          134.5          86.73
    0.6251               -26.5          23.12           68.1          40.96         -14.54          10.59          132.9        -0.3893          19.87          134.3          86.61
    0.6416               -26.7          23.24          67.63          40.89         -14.45          10.52          132.0        -0.1335          20.09          134.0          86.47
     0.658              -26.94           23.4          67.06           40.8         -14.34          10.44          130.8         0.1821          20.36          133.7          86.29
    0.6745              -27.23          23.59          66.34          40.69          -14.2          10.34          129.3         0.5756          20.71          133.3          86.07
    0.6909              -27.61          23.83          65.44          40.56         -14.02          10.21          127.5          1.071          21.14          132.8          85.79
    0.7074              -28.09          24.14          64.29          40.38          -13.8          10.05          125.1          1.702          21.69          132.1          85.43
    0.7238               -28.7          24.53          62.82          40.15         -13.51          9.848          122.1          2.508          22.39          131.3          84.97
    0.7403              -29.48          25.04          60.94          39.86         -13.14          9.584          118.2          3.544          23.29          130.2          84.39
    0.7567              -30.48          25.68          58.53          39.49         -12.67          9.247          113.3          4.866          24.45          128.8          83.64
    0.7732              -31.74          26.49           55.5          39.03         -12.08          8.823          107.1          6.529           25.9          127.1           82.7
    0.7896              -33.27          27.48          51.81          38.46         -11.36          8.307          99.49          8.555          27.66          125.0          81.56
    0.8061              -35.05          28.62          47.53           37.8         -10.52          7.709          90.71           10.9          29.71          122.6          80.23
    0.8225              -36.97          29.86           42.9          37.09         -9.614          7.061          81.21          13.45          31.92          119.9          78.79
     0.839               -38.9           31.1          38.27          36.38         -8.708          6.413           71.7          15.99          34.14          117.3          77.36
    0.8554              -40.68          32.25          33.99          35.72         -7.872          5.815          62.92          18.34          36.19          114.8          76.03
    0.8719              -42.21          33.23           30.3          35.15          -7.15          5.299          55.35          20.36          37.95          112.7          74.89
    0.8883              -43.47          34.04          27.28          34.69         -6.558          4.875          49.14          22.03           39.4          111.0          73.95
    0.9048              -44.47          34.69          24.87          34.32         -6.087          4.538          44.19          23.35          40.55          109.6           73.2
    0.9212              -45.25          35.19          22.98          34.03         -5.718          4.274          40.32          24.38          41.46          108.6          72.62
    0.9377              -45.86          35.58          21.51           33.8          -5.43          4.069          37.31          25.19          42.16          107.7          72.16
    0.9541              -46.34          35.89          20.37          33.62         -5.206          3.908          34.95          25.82          42.71          107.1           71.8
    0.9706              -46.71          36.13          19.46          33.48         -5.029          3.782           33.1          26.32          43.14          106.5          71.52
     0.987              -47.01          36.32          18.75          33.37         -4.889          3.682          31.63          26.71          43.48          106.1           71.3
     1.003              -47.25          36.48          18.17          33.29         -4.777          3.601          30.45          27.03          43.76          105.8          71.12
      1.02              -47.44           36.6          17.71          33.21         -4.686          3.536          29.49          27.28          43.98          105.5          70.98
     1.036               -47.6          36.71          17.32          33.16         -4.611          3.483          28.71          27.49          44.16          105.3          70.86
     1.053              -47.73          36.79          17.01          33.11         -4.549          3.439          28.06          27.66          44.31          105.1          70.76
